solid 1X2AB
facet normal 0.0 0.0 -1.0
outer loop
vertex 0.0 40.0 0.0
vertex 7.58518543427733 30.6470476127563 0.0
vertex 0.0 0.0 0.0
endloop
endfacet
facet normal 0.0 0.0 -1.0
outer loop
vertex 7.58518543427733 30.6470476127563 0.0
vertex 0.0 40.0 0.0
vertex 7.8349364905389 31.25 0.0
endloop
endfacet
facet normal 0.0 0.0 -1.0
outer loop
vertex 7.8349364905389 31.25 0.0
vertex 0.0 40.0 0.0
vertex 8.23223304703363 31.7677669529664 0.0
endloop
endfacet
facet normal 0.0 0.0 -1.0
outer loop
vertex 8.23223304703363 31.7677669529664 0.0
vertex 0.0 40.0 0.0
vertex 8.75 32.1650635094611 0.0
endloop
endfacet
facet normal 0.0 0.0 -1.0
outer loop
vertex 8.75 32.1650635094611 0.0
vertex 0.0 40.0 0.0
vertex 20.0 40.0 0.0
endloop
endfacet
facet normal 0.0 0.0 -1.0
outer loop
vertex 0.0 0.0 0.0
vertex 7.58518543427733 30.6470476127563 0.0
vertex 7.5 30.0 0.0
endloop
endfacet
facet normal 0.0 0.0 -1.0
outer loop
vertex 8.75 32.1650635094611 0.0
vertex 20.0 40.0 0.0
vertex 9.3529523872437 32.4148145657227 0.0
endloop
endfacet
facet normal 0.0 0.0 -1.0
outer loop
vertex 9.3529523872437 32.4148145657227 0.0
vertex 20.0 40.0 0.0
vertex 10.0 32.5 0.0
endloop
endfacet
facet normal 0.0 0.0 -1.0
outer loop
vertex 10.0 32.5 0.0
vertex 20.0 40.0 0.0
vertex 10.6470476127563 32.4148145657227 0.0
endloop
endfacet
facet normal 0.0 0.0 -1.0
outer loop
vertex 10.6470476127563 32.4148145657227 0.0
vertex 20.0 40.0 0.0
vertex 11.25 32.1650635094611 0.0
endloop
endfacet
facet normal 0.0 0.0 -1.0
outer loop
vertex 11.25 32.1650635094611 0.0
vertex 20.0 40.0 0.0
vertex 11.7677669529664 31.7677669529664 0.0
endloop
endfacet
facet normal 0.0 0.0 -1.0
outer loop
vertex 11.7677669529664 31.7677669529664 0.0
vertex 20.0 40.0 0.0
vertex 12.1650635094611 31.25 0.0
endloop
endfacet
facet normal 0.0 0.0 -1.0
outer loop
vertex 12.1650635094611 31.25 0.0
vertex 20.0 40.0 0.0
vertex 12.4148145657227 30.6470476127563 0.0
endloop
endfacet
facet normal 0.0 0.0 -1.0
outer loop
vertex 12.4148145657227 30.6470476127563 0.0
vertex 20.0 40.0 0.0
vertex 12.5 30.0 0.0
endloop
endfacet
facet normal 0.0 0.0 -1.0
outer loop
vertex 12.5 30.0 0.0
vertex 20.0 40.0 0.0
vertex 12.5 10.0 0.0
endloop
endfacet
facet normal 0.0 0.0 -1.0
outer loop
vertex 0.0 0.0 0.0
vertex 8.75 7.8349364905389 0.0
vertex 20.0 0.0 0.0
endloop
endfacet
facet normal 0.0 0.0 -1.0
outer loop
vertex 8.75 7.8349364905389 0.0
vertex 0.0 0.0 0.0
vertex 8.23223304703363 8.23223304703363 0.0
endloop
endfacet
facet normal 0.0 0.0 -1.0
outer loop
vertex 8.23223304703363 8.23223304703363 0.0
vertex 0.0 0.0 0.0
vertex 7.8349364905389 8.75 0.0
endloop
endfacet
facet normal 0.0 0.0 -1.0
outer loop
vertex 7.8349364905389 8.75 0.0
vertex 0.0 0.0 0.0
vertex 7.58518543427733 9.3529523872437 0.0
endloop
endfacet
facet normal 0.0 0.0 -1.0
outer loop
vertex 7.58518543427733 9.3529523872437 0.0
vertex 0.0 0.0 0.0
vertex 7.5 10.0 0.0
endloop
endfacet
facet normal 0.0 0.0 -1.0
outer loop
vertex 7.5 10.0 0.0
vertex 0.0 0.0 0.0
vertex 7.5 30.0 0.0
endloop
endfacet
facet normal 0.0 0.0 -1.0
outer loop
vertex 20.0 0.0 0.0
vertex 8.75 7.8349364905389 0.0
vertex 9.3529523872437 7.58518543427733 0.0
endloop
endfacet
facet normal 0.0 0.0 -1.0
outer loop
vertex 20.0 0.0 0.0
vertex 9.3529523872437 7.58518543427733 0.0
vertex 10.0 7.5 0.0
endloop
endfacet
facet normal 0.0 0.0 -1.0
outer loop
vertex 20.0 0.0 0.0
vertex 10.0 7.5 0.0
vertex 10.6470476127563 7.58518543427733 0.0
endloop
endfacet
facet normal 0.0 0.0 -1.0
outer loop
vertex 20.0 0.0 0.0
vertex 10.6470476127563 7.58518543427733 0.0
vertex 11.25 7.8349364905389 0.0
endloop
endfacet
facet normal 0.0 0.0 -1.0
outer loop
vertex 20.0 0.0 0.0
vertex 11.25 7.8349364905389 0.0
vertex 11.7677669529664 8.23223304703363 0.0
endloop
endfacet
facet normal 0.0 0.0 -1.0
outer loop
vertex 20.0 0.0 0.0
vertex 11.7677669529664 8.23223304703363 0.0
vertex 12.1650635094611 8.75 0.0
endloop
endfacet
facet normal 0.0 0.0 -1.0
outer loop
vertex 20.0 0.0 0.0
vertex 12.1650635094611 8.75 0.0
vertex 12.4148145657227 9.3529523872437 0.0
endloop
endfacet
facet normal 0.0 0.0 -1.0
outer loop
vertex 20.0 0.0 0.0
vertex 12.4148145657227 9.3529523872437 0.0
vertex 12.5 10.0 0.0
endloop
endfacet
facet normal 0.0 0.0 -1.0
outer loop
vertex 20.0 0.0 0.0
vertex 12.5 10.0 0.0
vertex 20.0 40.0 0.0
endloop
endfacet
facet normal 0.0 0.0 -1.0
outer loop
vertex 7.58518543427733 29.3529523872437 0.0
vertex 7.5 10.0 0.0
vertex 7.5 30.0 0.0
endloop
endfacet
facet normal 0.0 0.0 -1.0
outer loop
vertex 7.5 10.0 0.0
vertex 7.58518543427733 29.3529523872437 0.0
vertex 7.58518543427733 10.6470476127563 0.0
endloop
endfacet
facet normal 0.0 0.0 -1.0
outer loop
vertex 7.58518543427733 10.6470476127563 0.0
vertex 7.58518543427733 29.3529523872437 0.0
vertex 7.8349364905389 28.75 0.0
endloop
endfacet
facet normal 0.0 0.0 -1.0
outer loop
vertex 7.58518543427733 10.6470476127563 0.0
vertex 7.8349364905389 28.75 0.0
vertex 7.8349364905389 11.25 0.0
endloop
endfacet
facet normal 0.0 0.0 -1.0
outer loop
vertex 7.8349364905389 11.25 0.0
vertex 7.8349364905389 28.75 0.0
vertex 8.23223304703363 28.2322330470336 0.0
endloop
endfacet
facet normal 0.0 0.0 -1.0
outer loop
vertex 7.8349364905389 11.25 0.0
vertex 8.23223304703363 28.2322330470336 0.0
vertex 8.23223304703363 11.7677669529664 0.0
endloop
endfacet
facet normal 0.0 0.0 -1.0
outer loop
vertex 8.23223304703363 11.7677669529664 0.0
vertex 8.23223304703363 28.2322330470336 0.0
vertex 8.75 27.8349364905389 0.0
endloop
endfacet
facet normal 0.0 0.0 -1.0
outer loop
vertex 8.23223304703363 11.7677669529664 0.0
vertex 8.75 27.8349364905389 0.0
vertex 8.75 12.1650635094611 0.0
endloop
endfacet
facet normal 0.0 0.0 -1.0
outer loop
vertex 8.75 12.1650635094611 0.0
vertex 8.75 27.8349364905389 0.0
vertex 9.3529523872437 27.5851854342773 0.0
endloop
endfacet
facet normal 0.0 0.0 -1.0
outer loop
vertex 8.75 12.1650635094611 0.0
vertex 9.3529523872437 27.5851854342773 0.0
vertex 9.3529523872437 12.4148145657227 0.0
endloop
endfacet
facet normal 0.0 0.0 -1.0
outer loop
vertex 9.3529523872437 12.4148145657227 0.0
vertex 9.3529523872437 27.5851854342773 0.0
vertex 10.0 27.5 0.0
endloop
endfacet
facet normal 0.0 0.0 -1.0
outer loop
vertex 9.3529523872437 12.4148145657227 0.0
vertex 10.0 27.5 0.0
vertex 10.0 12.5 0.0
endloop
endfacet
facet normal 0.0 0.0 -1.0
outer loop
vertex 10.0 12.5 0.0
vertex 10.0 27.5 0.0
vertex 10.6470476127563 27.5851854342773 0.0
endloop
endfacet
facet normal 0.0 0.0 -1.0
outer loop
vertex 10.0 12.5 0.0
vertex 10.6470476127563 27.5851854342773 0.0
vertex 10.6470476127563 12.4148145657227 0.0
endloop
endfacet
facet normal 0.0 0.0 -1.0
outer loop
vertex 10.6470476127563 12.4148145657227 0.0
vertex 10.6470476127563 27.5851854342773 0.0
vertex 11.25 27.8349364905389 0.0
endloop
endfacet
facet normal 0.0 0.0 -1.0
outer loop
vertex 10.6470476127563 12.4148145657227 0.0
vertex 11.25 27.8349364905389 0.0
vertex 11.25 12.1650635094611 0.0
endloop
endfacet
facet normal 0.0 0.0 -1.0
outer loop
vertex 11.25 12.1650635094611 0.0
vertex 11.25 27.8349364905389 0.0
vertex 11.7677669529664 28.2322330470336 0.0
endloop
endfacet
facet normal 0.0 0.0 -1.0
outer loop
vertex 11.25 12.1650635094611 0.0
vertex 11.7677669529664 28.2322330470336 0.0
vertex 11.7677669529664 11.7677669529664 0.0
endloop
endfacet
facet normal 0.0 0.0 -1.0
outer loop
vertex 11.7677669529664 11.7677669529664 0.0
vertex 11.7677669529664 28.2322330470336 0.0
vertex 12.1650635094611 28.75 0.0
endloop
endfacet
facet normal 0.0 0.0 -1.0
outer loop
vertex 11.7677669529664 11.7677669529664 0.0
vertex 12.1650635094611 28.75 0.0
vertex 12.1650635094611 11.25 0.0
endloop
endfacet
facet normal 0.0 0.0 -1.0
outer loop
vertex 12.1650635094611 11.25 0.0
vertex 12.1650635094611 28.75 0.0
vertex 12.4148145657227 29.3529523872437 0.0
endloop
endfacet
facet normal 0.0 0.0 -1.0
outer loop
vertex 12.1650635094611 11.25 0.0
vertex 12.4148145657227 29.3529523872437 0.0
vertex 12.4148145657227 10.6470476127563 0.0
endloop
endfacet
facet normal 0.0 0.0 -1.0
outer loop
vertex 12.4148145657227 10.6470476127563 0.0
vertex 12.4148145657227 29.3529523872437 0.0
vertex 12.5 30.0 0.0
endloop
endfacet
facet normal 0.0 0.0 -1.0
outer loop
vertex 12.4148145657227 10.6470476127563 0.0
vertex 12.5 30.0 0.0
vertex 12.5 10.0 0.0
endloop
endfacet
facet normal 0.0 0.0 1.0
outer loop
vertex 3.0 0.0 3.0
vertex 7.58518543427733 9.3529523872437 3.0
vertex 3.0 40.0 3.0
endloop
endfacet
facet normal 0.0 0.0 1.0
outer loop
vertex 7.58518543427733 9.3529523872437 3.0
vertex 3.0 0.0 3.0
vertex 7.8349364905389 8.75 3.0
endloop
endfacet
facet normal 0.0 0.0 1.0
outer loop
vertex 7.8349364905389 8.75 3.0
vertex 3.0 0.0 3.0
vertex 8.23223304703363 8.23223304703363 3.0
endloop
endfacet
facet normal 0.0 0.0 1.0
outer loop
vertex 8.23223304703363 8.23223304703363 3.0
vertex 3.0 0.0 3.0
vertex 8.75 7.8349364905389 3.0
endloop
endfacet
facet normal 0.0 0.0 1.0
outer loop
vertex 8.75 7.8349364905389 3.0
vertex 3.0 0.0 3.0
vertex 20.0 0.0 3.0
endloop
endfacet
facet normal 0.0 0.0 1.0
outer loop
vertex 3.0 40.0 3.0
vertex 7.58518543427733 9.3529523872437 3.0
vertex 7.5 10.0 3.0
endloop
endfacet
facet normal 0.0 0.0 1.0
outer loop
vertex 8.75 7.8349364905389 3.0
vertex 20.0 0.0 3.0
vertex 9.3529523872437 7.58518543427733 3.0
endloop
endfacet
facet normal 0.0 0.0 1.0
outer loop
vertex 9.3529523872437 7.58518543427733 3.0
vertex 20.0 0.0 3.0
vertex 10.0 7.5 3.0
endloop
endfacet
facet normal 0.0 0.0 1.0
outer loop
vertex 10.0 7.5 3.0
vertex 20.0 0.0 3.0
vertex 10.6470476127563 7.58518543427733 3.0
endloop
endfacet
facet normal 0.0 0.0 1.0
outer loop
vertex 10.6470476127563 7.58518543427733 3.0
vertex 20.0 0.0 3.0
vertex 11.25 7.8349364905389 3.0
endloop
endfacet
facet normal 0.0 0.0 1.0
outer loop
vertex 11.25 7.8349364905389 3.0
vertex 20.0 0.0 3.0
vertex 11.7677669529664 8.23223304703363 3.0
endloop
endfacet
facet normal 0.0 0.0 1.0
outer loop
vertex 11.7677669529664 8.23223304703363 3.0
vertex 20.0 0.0 3.0
vertex 12.1650635094611 8.75 3.0
endloop
endfacet
facet normal 0.0 0.0 1.0
outer loop
vertex 12.1650635094611 8.75 3.0
vertex 20.0 0.0 3.0
vertex 12.4148145657227 9.3529523872437 3.0
endloop
endfacet
facet normal 0.0 0.0 1.0
outer loop
vertex 12.4148145657227 9.3529523872437 3.0
vertex 20.0 0.0 3.0
vertex 12.5 10.0 3.0
endloop
endfacet
facet normal 0.0 0.0 1.0
outer loop
vertex 12.5 10.0 3.0
vertex 20.0 0.0 3.0
vertex 12.5 30.0 3.0
endloop
endfacet
facet normal 0.0 0.0 1.0
outer loop
vertex 3.0 40.0 3.0
vertex 8.75 32.1650635094611 3.0
vertex 20.0 40.0 3.0
endloop
endfacet
facet normal 0.0 0.0 1.0
outer loop
vertex 8.75 32.1650635094611 3.0
vertex 3.0 40.0 3.0
vertex 8.23223304703363 31.7677669529664 3.0
endloop
endfacet
facet normal 0.0 0.0 1.0
outer loop
vertex 8.23223304703363 31.7677669529664 3.0
vertex 3.0 40.0 3.0
vertex 7.8349364905389 31.25 3.0
endloop
endfacet
facet normal 0.0 0.0 1.0
outer loop
vertex 7.8349364905389 31.25 3.0
vertex 3.0 40.0 3.0
vertex 7.58518543427733 30.6470476127563 3.0
endloop
endfacet
facet normal 0.0 0.0 1.0
outer loop
vertex 7.58518543427733 30.6470476127563 3.0
vertex 3.0 40.0 3.0
vertex 7.5 30.0 3.0
endloop
endfacet
facet normal 0.0 0.0 1.0
outer loop
vertex 7.5 30.0 3.0
vertex 3.0 40.0 3.0
vertex 7.5 10.0 3.0
endloop
endfacet
facet normal 0.0 0.0 1.0
outer loop
vertex 20.0 40.0 3.0
vertex 8.75 32.1650635094611 3.0
vertex 9.3529523872437 32.4148145657227 3.0
endloop
endfacet
facet normal 0.0 0.0 1.0
outer loop
vertex 20.0 40.0 3.0
vertex 9.3529523872437 32.4148145657227 3.0
vertex 10.0 32.5 3.0
endloop
endfacet
facet normal 0.0 0.0 1.0
outer loop
vertex 20.0 40.0 3.0
vertex 10.0 32.5 3.0
vertex 10.6470476127563 32.4148145657227 3.0
endloop
endfacet
facet normal 0.0 0.0 1.0
outer loop
vertex 20.0 40.0 3.0
vertex 10.6470476127563 32.4148145657227 3.0
vertex 11.25 32.1650635094611 3.0
endloop
endfacet
facet normal 0.0 0.0 1.0
outer loop
vertex 20.0 40.0 3.0
vertex 11.25 32.1650635094611 3.0
vertex 11.7677669529664 31.7677669529664 3.0
endloop
endfacet
facet normal 0.0 0.0 1.0
outer loop
vertex 20.0 40.0 3.0
vertex 11.7677669529664 31.7677669529664 3.0
vertex 12.1650635094611 31.25 3.0
endloop
endfacet
facet normal 0.0 0.0 1.0
outer loop
vertex 20.0 40.0 3.0
vertex 12.1650635094611 31.25 3.0
vertex 12.4148145657227 30.6470476127563 3.0
endloop
endfacet
facet normal 0.0 0.0 1.0
outer loop
vertex 20.0 40.0 3.0
vertex 12.4148145657227 30.6470476127563 3.0
vertex 12.5 30.0 3.0
endloop
endfacet
facet normal 0.0 0.0 1.0
outer loop
vertex 20.0 40.0 3.0
vertex 12.5 30.0 3.0
vertex 20.0 0.0 3.0
endloop
endfacet
facet normal 0.0 0.0 1.0
outer loop
vertex 7.58518543427733 10.6470476127563 3.0
vertex 7.5 30.0 3.0
vertex 7.5 10.0 3.0
endloop
endfacet
facet normal 0.0 0.0 1.0
outer loop
vertex 7.5 30.0 3.0
vertex 7.58518543427733 10.6470476127563 3.0
vertex 7.58518543427733 29.3529523872437 3.0
endloop
endfacet
facet normal 0.0 0.0 1.0
outer loop
vertex 7.58518543427733 29.3529523872437 3.0
vertex 7.58518543427733 10.6470476127563 3.0
vertex 7.8349364905389 11.25 3.0
endloop
endfacet
facet normal 0.0 0.0 1.0
outer loop
vertex 7.58518543427733 29.3529523872437 3.0
vertex 7.8349364905389 11.25 3.0
vertex 7.8349364905389 28.75 3.0
endloop
endfacet
facet normal 0.0 0.0 1.0
outer loop
vertex 7.8349364905389 28.75 3.0
vertex 7.8349364905389 11.25 3.0
vertex 8.23223304703363 28.2322330470336 3.0
endloop
endfacet
facet normal 0.0 0.0 1.0
outer loop
vertex 8.23223304703363 28.2322330470336 3.0
vertex 7.8349364905389 11.25 3.0
vertex 8.23223304703363 11.7677669529664 3.0
endloop
endfacet
facet normal 0.0 0.0 1.0
outer loop
vertex 8.23223304703363 28.2322330470336 3.0
vertex 8.23223304703363 11.7677669529664 3.0
vertex 8.75 27.8349364905389 3.0
endloop
endfacet
facet normal 0.0 0.0 1.0
outer loop
vertex 8.75 27.8349364905389 3.0
vertex 8.23223304703363 11.7677669529664 3.0
vertex 8.75 12.1650635094611 3.0
endloop
endfacet
facet normal 0.0 0.0 1.0
outer loop
vertex 8.75 27.8349364905389 3.0
vertex 8.75 12.1650635094611 3.0
vertex 9.3529523872437 27.5851854342773 3.0
endloop
endfacet
facet normal 0.0 0.0 1.0
outer loop
vertex 9.3529523872437 27.5851854342773 3.0
vertex 8.75 12.1650635094611 3.0
vertex 9.3529523872437 12.4148145657227 3.0
endloop
endfacet
facet normal 0.0 0.0 1.0
outer loop
vertex 9.3529523872437 27.5851854342773 3.0
vertex 9.3529523872437 12.4148145657227 3.0
vertex 10.0 27.5 3.0
endloop
endfacet
facet normal 0.0 0.0 1.0
outer loop
vertex 10.0 27.5 3.0
vertex 9.3529523872437 12.4148145657227 3.0
vertex 10.0 12.5 3.0
endloop
endfacet
facet normal 0.0 0.0 1.0
outer loop
vertex 10.0 27.5 3.0
vertex 10.0 12.5 3.0
vertex 10.6470476127563 12.4148145657227 3.0
endloop
endfacet
facet normal 0.0 0.0 1.0
outer loop
vertex 10.0 27.5 3.0
vertex 10.6470476127563 12.4148145657227 3.0
vertex 10.6470476127563 27.5851854342773 3.0
endloop
endfacet
facet normal 0.0 0.0 1.0
outer loop
vertex 10.6470476127563 27.5851854342773 3.0
vertex 10.6470476127563 12.4148145657227 3.0
vertex 11.25 27.8349364905389 3.0
endloop
endfacet
facet normal 0.0 0.0 1.0
outer loop
vertex 11.25 27.8349364905389 3.0
vertex 10.6470476127563 12.4148145657227 3.0
vertex 11.25 12.1650635094611 3.0
endloop
endfacet
facet normal 0.0 0.0 1.0
outer loop
vertex 11.25 27.8349364905389 3.0
vertex 11.25 12.1650635094611 3.0
vertex 11.7677669529664 28.2322330470336 3.0
endloop
endfacet
facet normal 0.0 0.0 1.0
outer loop
vertex 11.7677669529664 28.2322330470336 3.0
vertex 11.25 12.1650635094611 3.0
vertex 11.7677669529664 11.7677669529664 3.0
endloop
endfacet
facet normal 0.0 0.0 1.0
outer loop
vertex 11.7677669529664 28.2322330470336 3.0
vertex 11.7677669529664 11.7677669529664 3.0
vertex 12.1650635094611 28.75 3.0
endloop
endfacet
facet normal 0.0 0.0 1.0
outer loop
vertex 12.1650635094611 28.75 3.0
vertex 11.7677669529664 11.7677669529664 3.0
vertex 12.1650635094611 11.25 3.0
endloop
endfacet
facet normal 0.0 0.0 1.0
outer loop
vertex 12.1650635094611 28.75 3.0
vertex 12.1650635094611 11.25 3.0
vertex 12.4148145657227 29.3529523872437 3.0
endloop
endfacet
facet normal 0.0 0.0 1.0
outer loop
vertex 12.4148145657227 29.3529523872437 3.0
vertex 12.1650635094611 11.25 3.0
vertex 12.4148145657227 10.6470476127563 3.0
endloop
endfacet
facet normal 0.0 0.0 1.0
outer loop
vertex 12.4148145657227 29.3529523872437 3.0
vertex 12.4148145657227 10.6470476127563 3.0
vertex 12.5 10.0 3.0
endloop
endfacet
facet normal 0.0 0.0 1.0
outer loop
vertex 12.4148145657227 29.3529523872437 3.0
vertex 12.5 10.0 3.0
vertex 12.5 30.0 3.0
endloop
endfacet
facet normal 1.0 0.0 0.0
outer loop
vertex 20.0 40.0 0.0
vertex 20.0 0.0 3.0
vertex 20.0 0.0 0.0
endloop
endfacet
facet normal 1.0 0.0 0.0
outer loop
vertex 20.0 0.0 3.0
vertex 20.0 40.0 0.0
vertex 20.0 40.0 3.0
endloop
endfacet
facet normal -1.0 0.0 0.0
outer loop
vertex 12.5 30.0 3.0
vertex 12.4148145657227 29.3529523872437 0.0
vertex 12.4148145657227 29.3529523872437 3.0
endloop
endfacet
facet normal -0.965925826289068 0.258819045102521 0.0
outer loop
vertex 12.4148145657227 29.3529523872437 0.0
vertex 12.5 30.0 3.0
vertex 12.5 30.0 0.0
endloop
endfacet
facet normal -0.965925826289068 -0.258819045102521 0.0
outer loop
vertex 12.4148145657227 30.6470476127563 3.0
vertex 12.5 30.0 0.0
vertex 12.5 30.0 3.0
endloop
endfacet
facet normal -1.0 0.0 0.0
outer loop
vertex 12.5 30.0 0.0
vertex 12.4148145657227 30.6470476127563 3.0
vertex 12.4148145657227 30.6470476127563 0.0
endloop
endfacet
facet normal -0.866025403784439 -0.5 0.0
outer loop
vertex 12.1650635094611 31.25 3.0
vertex 12.4148145657227 30.6470476127563 0.0
vertex 12.4148145657227 30.6470476127563 3.0
endloop
endfacet
facet normal -0.965925826289068 -0.258819045102521 0.0
outer loop
vertex 12.4148145657227 30.6470476127563 0.0
vertex 12.1650635094611 31.25 3.0
vertex 12.1650635094611 31.25 0.0
endloop
endfacet
facet normal -0.707106781186548 -0.707106781186547 0.0
outer loop
vertex 11.7677669529664 31.7677669529664 3.0
vertex 12.1650635094611 31.25 0.0
vertex 12.1650635094611 31.25 3.0
endloop
endfacet
facet normal -0.866025403784439 -0.5 0.0
outer loop
vertex 12.1650635094611 31.25 0.0
vertex 11.7677669529664 31.7677669529664 3.0
vertex 11.7677669529664 31.7677669529664 0.0
endloop
endfacet
facet normal -0.707106781186548 -0.707106781186547 0.0
outer loop
vertex 11.7677669529664 31.7677669529664 3.0
vertex 11.25 32.1650635094611 0.0
vertex 11.7677669529664 31.7677669529664 0.0
endloop
endfacet
facet normal -0.5 -0.866025403784439 0.0
outer loop
vertex 11.25 32.1650635094611 0.0
vertex 11.7677669529664 31.7677669529664 3.0
vertex 11.25 32.1650635094611 3.0
endloop
endfacet
facet normal -0.5 -0.866025403784439 0.0
outer loop
vertex 11.25 32.1650635094611 3.0
vertex 10.6470476127563 32.4148145657227 0.0
vertex 11.25 32.1650635094611 0.0
endloop
endfacet
facet normal -0.258819045102523 -0.965925826289068 0.0
outer loop
vertex 10.6470476127563 32.4148145657227 0.0
vertex 11.25 32.1650635094611 3.0
vertex 10.6470476127563 32.4148145657227 3.0
endloop
endfacet
facet normal -0.258819045102523 -0.965925826289068 0.0
outer loop
vertex 10.6470476127563 32.4148145657227 3.0
vertex 10.0 32.5 0.0
vertex 10.6470476127563 32.4148145657227 0.0
endloop
endfacet
facet normal 4.18822165095405e-16 -1.0 0.0
outer loop
vertex 10.0 32.5 0.0
vertex 10.6470476127563 32.4148145657227 3.0
vertex 10.0 32.5 3.0
endloop
endfacet
facet normal 4.18822165095405e-16 -1.0 0.0
outer loop
vertex 10.0 32.5 3.0
vertex 9.3529523872437 32.4148145657227 0.0
vertex 10.0 32.5 0.0
endloop
endfacet
facet normal 0.258819045102523 -0.965925826289068 0.0
outer loop
vertex 9.3529523872437 32.4148145657227 0.0
vertex 10.0 32.5 3.0
vertex 9.3529523872437 32.4148145657227 3.0
endloop
endfacet
facet normal 0.258819045102523 -0.965925826289068 0.0
outer loop
vertex 9.3529523872437 32.4148145657227 3.0
vertex 8.75 32.1650635094611 0.0
vertex 9.3529523872437 32.4148145657227 0.0
endloop
endfacet
facet normal 0.499999999999999 -0.866025403784439 0.0
outer loop
vertex 8.75 32.1650635094611 0.0
vertex 9.3529523872437 32.4148145657227 3.0
vertex 8.75 32.1650635094611 3.0
endloop
endfacet
facet normal 0.499999999999999 -0.866025403784439 0.0
outer loop
vertex 8.75 32.1650635094611 3.0
vertex 8.23223304703363 31.7677669529664 0.0
vertex 8.75 32.1650635094611 0.0
endloop
endfacet
facet normal 0.707106781186546 -0.707106781186549 0.0
outer loop
vertex 8.23223304703363 31.7677669529664 0.0
vertex 8.75 32.1650635094611 3.0
vertex 8.23223304703363 31.7677669529664 3.0
endloop
endfacet
facet normal 0.707106781186546 -0.707106781186549 0.0
outer loop
vertex 8.23223304703363 31.7677669529664 0.0
vertex 7.8349364905389 31.25 3.0
vertex 7.8349364905389 31.25 0.0
endloop
endfacet
facet normal 0.866025403784438 -0.500000000000001 0.0
outer loop
vertex 7.8349364905389 31.25 3.0
vertex 8.23223304703363 31.7677669529664 0.0
vertex 8.23223304703363 31.7677669529664 3.0
endloop
endfacet
facet normal 0.866025403784438 -0.500000000000001 0.0
outer loop
vertex 7.8349364905389 31.25 0.0
vertex 7.58518543427733 30.6470476127563 3.0
vertex 7.58518543427733 30.6470476127563 0.0
endloop
endfacet
facet normal 0.965925826289068 -0.258819045102521 0.0
outer loop
vertex 7.58518543427733 30.6470476127563 3.0
vertex 7.8349364905389 31.25 0.0
vertex 7.8349364905389 31.25 3.0
endloop
endfacet
facet normal 0.965925826289068 -0.258819045102521 0.0
outer loop
vertex 7.58518543427733 30.6470476127563 0.0
vertex 7.5 30.0 3.0
vertex 7.5 30.0 0.0
endloop
endfacet
facet normal 1.0 0.0 0.0
outer loop
vertex 7.5 30.0 3.0
vertex 7.58518543427733 30.6470476127563 0.0
vertex 7.58518543427733 30.6470476127563 3.0
endloop
endfacet
facet normal 1.0 0.0 0.0
outer loop
vertex 7.5 30.0 0.0
vertex 7.58518543427733 29.3529523872437 3.0
vertex 7.58518543427733 29.3529523872437 0.0
endloop
endfacet
facet normal 0.965925826289068 0.258819045102521 0.0
outer loop
vertex 7.58518543427733 29.3529523872437 3.0
vertex 7.5 30.0 0.0
vertex 7.5 30.0 3.0
endloop
endfacet
facet normal 0.965925826289068 0.258819045102521 0.0
outer loop
vertex 7.58518543427733 29.3529523872437 0.0
vertex 7.8349364905389 28.75 3.0
vertex 7.8349364905389 28.75 0.0
endloop
endfacet
facet normal 0.866025403784439 0.5 0.0
outer loop
vertex 7.8349364905389 28.75 3.0
vertex 7.58518543427733 29.3529523872437 0.0
vertex 7.58518543427733 29.3529523872437 3.0
endloop
endfacet
facet normal 0.866025403784439 0.5 0.0
outer loop
vertex 7.8349364905389 28.75 0.0
vertex 8.23223304703363 28.2322330470336 3.0
vertex 8.23223304703363 28.2322330470336 0.0
endloop
endfacet
facet normal 0.707106781186548 0.707106781186547 0.0
outer loop
vertex 8.23223304703363 28.2322330470336 3.0
vertex 7.8349364905389 28.75 0.0
vertex 7.8349364905389 28.75 3.0
endloop
endfacet
facet normal 0.707106781186548 0.707106781186547 0.0
outer loop
vertex 8.23223304703363 28.2322330470336 3.0
vertex 8.75 27.8349364905389 0.0
vertex 8.23223304703363 28.2322330470336 0.0
endloop
endfacet
facet normal 0.5 0.866025403784439 0.0
outer loop
vertex 8.75 27.8349364905389 0.0
vertex 8.23223304703363 28.2322330470336 3.0
vertex 8.75 27.8349364905389 3.0
endloop
endfacet
facet normal 0.5 0.866025403784439 0.0
outer loop
vertex 8.75 27.8349364905389 3.0
vertex 9.3529523872437 27.5851854342773 0.0
vertex 8.75 27.8349364905389 0.0
endloop
endfacet
facet normal 0.258819045102523 0.965925826289068 0.0
outer loop
vertex 9.3529523872437 27.5851854342773 0.0
vertex 8.75 27.8349364905389 3.0
vertex 9.3529523872437 27.5851854342773 3.0
endloop
endfacet
facet normal 0.258819045102523 0.965925826289068 0.0
outer loop
vertex 9.3529523872437 27.5851854342773 3.0
vertex 10.0 27.5 0.0
vertex 9.3529523872437 27.5851854342773 0.0
endloop
endfacet
facet normal -1.42577758330351e-16 1.0 0.0
outer loop
vertex 10.0 27.5 0.0
vertex 9.3529523872437 27.5851854342773 3.0
vertex 10.0 27.5 3.0
endloop
endfacet
facet normal -1.42577758330351e-16 1.0 0.0
outer loop
vertex 10.0 27.5 3.0
vertex 10.6470476127563 27.5851854342773 0.0
vertex 10.0 27.5 0.0
endloop
endfacet
facet normal -0.258819045102523 0.965925826289068 0.0
outer loop
vertex 10.6470476127563 27.5851854342773 0.0
vertex 10.0 27.5 3.0
vertex 10.6470476127563 27.5851854342773 3.0
endloop
endfacet
facet normal -0.258819045102523 0.965925826289068 0.0
outer loop
vertex 10.6470476127563 27.5851854342773 3.0
vertex 11.25 27.8349364905389 0.0
vertex 10.6470476127563 27.5851854342773 0.0
endloop
endfacet
facet normal -0.5 0.866025403784439 0.0
outer loop
vertex 11.25 27.8349364905389 0.0
vertex 10.6470476127563 27.5851854342773 3.0
vertex 11.25 27.8349364905389 3.0
endloop
endfacet
facet normal -0.5 0.866025403784439 0.0
outer loop
vertex 11.25 27.8349364905389 3.0
vertex 11.7677669529664 28.2322330470336 0.0
vertex 11.25 27.8349364905389 0.0
endloop
endfacet
facet normal -0.707106781186546 0.707106781186549 0.0
outer loop
vertex 11.7677669529664 28.2322330470336 0.0
vertex 11.25 27.8349364905389 3.0
vertex 11.7677669529664 28.2322330470336 3.0
endloop
endfacet
facet normal -0.866025403784438 0.500000000000001 0.0
outer loop
vertex 12.1650635094611 28.75 3.0
vertex 11.7677669529664 28.2322330470336 0.0
vertex 11.7677669529664 28.2322330470336 3.0
endloop
endfacet
facet normal -0.707106781186546 0.707106781186549 0.0
outer loop
vertex 11.7677669529664 28.2322330470336 0.0
vertex 12.1650635094611 28.75 3.0
vertex 12.1650635094611 28.75 0.0
endloop
endfacet
facet normal -0.965925826289068 0.258819045102521 0.0
outer loop
vertex 12.4148145657227 29.3529523872437 3.0
vertex 12.1650635094611 28.75 0.0
vertex 12.1650635094611 28.75 3.0
endloop
endfacet
facet normal -0.866025403784438 0.500000000000001 0.0
outer loop
vertex 12.1650635094611 28.75 0.0
vertex 12.4148145657227 29.3529523872437 3.0
vertex 12.4148145657227 29.3529523872437 0.0
endloop
endfacet
facet normal 0.965925826289068 -0.258819045102522 0.0
outer loop
vertex 7.58518543427733 10.6470476127563 0.0
vertex 7.5 10.0 3.0
vertex 7.5 10.0 0.0
endloop
endfacet
facet normal 1.0 2.85155516660701e-16 0.0
outer loop
vertex 7.5 10.0 3.0
vertex 7.58518543427733 10.6470476127563 0.0
vertex 7.58518543427733 10.6470476127563 3.0
endloop
endfacet
facet normal 1.0 2.85155516660701e-16 0.0
outer loop
vertex 7.5 10.0 0.0
vertex 7.58518543427733 9.3529523872437 3.0
vertex 7.58518543427733 9.3529523872437 0.0
endloop
endfacet
facet normal 0.965925826289068 0.258819045102521 0.0
outer loop
vertex 7.58518543427733 9.3529523872437 3.0
vertex 7.5 10.0 0.0
vertex 7.5 10.0 3.0
endloop
endfacet
facet normal 0.965925826289068 0.258819045102521 0.0
outer loop
vertex 7.58518543427733 9.3529523872437 0.0
vertex 7.8349364905389 8.75 3.0
vertex 7.8349364905389 8.75 0.0
endloop
endfacet
facet normal 0.866025403784439 0.499999999999999 0.0
outer loop
vertex 7.8349364905389 8.75 3.0
vertex 7.58518543427733 9.3529523872437 0.0
vertex 7.58518543427733 9.3529523872437 3.0
endloop
endfacet
facet normal 0.866025403784439 0.499999999999999 0.0
outer loop
vertex 7.8349364905389 8.75 0.0
vertex 8.23223304703363 8.23223304703363 3.0
vertex 8.23223304703363 8.23223304703363 0.0
endloop
endfacet
facet normal 0.707106781186548 0.707106781186547 0.0
outer loop
vertex 8.23223304703363 8.23223304703363 3.0
vertex 7.8349364905389 8.75 0.0
vertex 7.8349364905389 8.75 3.0
endloop
endfacet
facet normal 0.707106781186548 0.707106781186547 0.0
outer loop
vertex 8.23223304703363 8.23223304703363 3.0
vertex 8.75 7.8349364905389 0.0
vertex 8.23223304703363 8.23223304703363 0.0
endloop
endfacet
facet normal 0.5 0.866025403784439 0.0
outer loop
vertex 8.75 7.8349364905389 0.0
vertex 8.23223304703363 8.23223304703363 3.0
vertex 8.75 7.8349364905389 3.0
endloop
endfacet
facet normal 0.5 0.866025403784439 0.0
outer loop
vertex 8.75 7.8349364905389 3.0
vertex 9.3529523872437 7.58518543427733 0.0
vertex 8.75 7.8349364905389 0.0
endloop
endfacet
facet normal 0.258819045102521 0.965925826289068 0.0
outer loop
vertex 9.3529523872437 7.58518543427733 0.0
vertex 8.75 7.8349364905389 3.0
vertex 9.3529523872437 7.58518543427733 3.0
endloop
endfacet
facet normal 0.258819045102521 0.965925826289068 0.0
outer loop
vertex 9.3529523872437 7.58518543427733 3.0
vertex 10.0 7.5 0.0
vertex 9.3529523872437 7.58518543427733 0.0
endloop
endfacet
facet normal -1.51488868225997e-16 1.0 0.0
outer loop
vertex 10.0 7.5 0.0
vertex 9.3529523872437 7.58518543427733 3.0
vertex 10.0 7.5 3.0
endloop
endfacet
facet normal -1.51488868225997e-16 1.0 0.0
outer loop
vertex 10.0 7.5 3.0
vertex 10.6470476127563 7.58518543427733 0.0
vertex 10.0 7.5 0.0
endloop
endfacet
facet normal -0.258819045102521 0.965925826289068 0.0
outer loop
vertex 10.6470476127563 7.58518543427733 0.0
vertex 10.0 7.5 3.0
vertex 10.6470476127563 7.58518543427733 3.0
endloop
endfacet
facet normal -0.258819045102521 0.965925826289068 0.0
outer loop
vertex 10.6470476127563 7.58518543427733 3.0
vertex 11.25 7.8349364905389 0.0
vertex 10.6470476127563 7.58518543427733 0.0
endloop
endfacet
facet normal -0.5 0.866025403784439 0.0
outer loop
vertex 11.25 7.8349364905389 0.0
vertex 10.6470476127563 7.58518543427733 3.0
vertex 11.25 7.8349364905389 3.0
endloop
endfacet
facet normal -0.5 0.866025403784439 0.0
outer loop
vertex 11.25 7.8349364905389 3.0
vertex 11.7677669529664 8.23223304703363 0.0
vertex 11.25 7.8349364905389 0.0
endloop
endfacet
facet normal -0.707106781186548 0.707106781186548 0.0
outer loop
vertex 11.7677669529664 8.23223304703363 0.0
vertex 11.25 7.8349364905389 3.0
vertex 11.7677669529664 8.23223304703363 3.0
endloop
endfacet
facet normal -0.866025403784438 0.500000000000001 0.0
outer loop
vertex 12.1650635094611 8.75 3.0
vertex 11.7677669529664 8.23223304703363 0.0
vertex 11.7677669529664 8.23223304703363 3.0
endloop
endfacet
facet normal -0.707106781186548 0.707106781186548 0.0
outer loop
vertex 11.7677669529664 8.23223304703363 0.0
vertex 12.1650635094611 8.75 3.0
vertex 12.1650635094611 8.75 0.0
endloop
endfacet
facet normal -0.965925826289068 0.258819045102522 0.0
outer loop
vertex 12.4148145657227 9.3529523872437 3.0
vertex 12.1650635094611 8.75 0.0
vertex 12.1650635094611 8.75 3.0
endloop
endfacet
facet normal -0.866025403784438 0.500000000000001 0.0
outer loop
vertex 12.1650635094611 8.75 0.0
vertex 12.4148145657227 9.3529523872437 3.0
vertex 12.4148145657227 9.3529523872437 0.0
endloop
endfacet
facet normal -1.0 -1.51488868225997e-16 0.0
outer loop
vertex 12.5 10.0 3.0
vertex 12.4148145657227 9.3529523872437 0.0
vertex 12.4148145657227 9.3529523872437 3.0
endloop
endfacet
facet normal -0.965925826289068 0.258819045102522 0.0
outer loop
vertex 12.4148145657227 9.3529523872437 0.0
vertex 12.5 10.0 3.0
vertex 12.5 10.0 0.0
endloop
endfacet
facet normal -0.965925826289068 -0.258819045102521 0.0
outer loop
vertex 12.4148145657227 10.6470476127563 3.0
vertex 12.5 10.0 0.0
vertex 12.5 10.0 3.0
endloop
endfacet
facet normal -1.0 -1.51488868225997e-16 0.0
outer loop
vertex 12.5 10.0 0.0
vertex 12.4148145657227 10.6470476127563 3.0
vertex 12.4148145657227 10.6470476127563 0.0
endloop
endfacet
facet normal -0.866025403784439 -0.5 0.0
outer loop
vertex 12.1650635094611 11.25 3.0
vertex 12.4148145657227 10.6470476127563 0.0
vertex 12.4148145657227 10.6470476127563 3.0
endloop
endfacet
facet normal -0.965925826289068 -0.258819045102521 0.0
outer loop
vertex 12.4148145657227 10.6470476127563 0.0
vertex 12.1650635094611 11.25 3.0
vertex 12.1650635094611 11.25 0.0
endloop
endfacet
facet normal -0.707106781186548 -0.707106781186548 0.0
outer loop
vertex 11.7677669529664 11.7677669529664 3.0
vertex 12.1650635094611 11.25 0.0
vertex 12.1650635094611 11.25 3.0
endloop
endfacet
facet normal -0.866025403784439 -0.5 0.0
outer loop
vertex 12.1650635094611 11.25 0.0
vertex 11.7677669529664 11.7677669529664 3.0
vertex 11.7677669529664 11.7677669529664 0.0
endloop
endfacet
facet normal -0.707106781186548 -0.707106781186548 0.0
outer loop
vertex 11.7677669529664 11.7677669529664 3.0
vertex 11.25 12.1650635094611 0.0
vertex 11.7677669529664 11.7677669529664 0.0
endloop
endfacet
facet normal -0.500000000000001 -0.866025403784438 0.0
outer loop
vertex 11.25 12.1650635094611 0.0
vertex 11.7677669529664 11.7677669529664 3.0
vertex 11.25 12.1650635094611 3.0
endloop
endfacet
facet normal -0.500000000000001 -0.866025403784438 0.0
outer loop
vertex 11.25 12.1650635094611 3.0
vertex 10.6470476127563 12.4148145657227 0.0
vertex 11.25 12.1650635094611 0.0
endloop
endfacet
facet normal -0.258819045102522 -0.965925826289068 0.0
outer loop
vertex 10.6470476127563 12.4148145657227 0.0
vertex 11.25 12.1650635094611 3.0
vertex 10.6470476127563 12.4148145657227 3.0
endloop
endfacet
facet normal -0.258819045102522 -0.965925826289068 0.0
outer loop
vertex 10.6470476127563 12.4148145657227 3.0
vertex 10.0 12.5 0.0
vertex 10.6470476127563 12.4148145657227 0.0
endloop
endfacet
facet normal 4.27733274991051e-16 -1.0 0.0
outer loop
vertex 10.0 12.5 0.0
vertex 10.6470476127563 12.4148145657227 3.0
vertex 10.0 12.5 3.0
endloop
endfacet
facet normal 4.27733274991051e-16 -1.0 0.0
outer loop
vertex 10.0 12.5 3.0
vertex 9.3529523872437 12.4148145657227 0.0
vertex 10.0 12.5 0.0
endloop
endfacet
facet normal 0.258819045102521 -0.965925826289068 0.0
outer loop
vertex 9.3529523872437 12.4148145657227 0.0
vertex 10.0 12.5 3.0
vertex 9.3529523872437 12.4148145657227 3.0
endloop
endfacet
facet normal 0.258819045102521 -0.965925826289068 0.0
outer loop
vertex 9.3529523872437 12.4148145657227 3.0
vertex 8.75 12.1650635094611 0.0
vertex 9.3529523872437 12.4148145657227 0.0
endloop
endfacet
facet normal 0.499999999999999 -0.866025403784439 0.0
outer loop
vertex 8.75 12.1650635094611 0.0
vertex 9.3529523872437 12.4148145657227 3.0
vertex 8.75 12.1650635094611 3.0
endloop
endfacet
facet normal 0.499999999999999 -0.866025403784439 0.0
outer loop
vertex 8.75 12.1650635094611 3.0
vertex 8.23223304703363 11.7677669529664 0.0
vertex 8.75 12.1650635094611 0.0
endloop
endfacet
facet normal 0.707106781186547 -0.707106781186548 0.0
outer loop
vertex 8.23223304703363 11.7677669529664 0.0
vertex 8.75 12.1650635094611 3.0
vertex 8.23223304703363 11.7677669529664 3.0
endloop
endfacet
facet normal 0.707106781186547 -0.707106781186548 0.0
outer loop
vertex 8.23223304703363 11.7677669529664 0.0
vertex 7.8349364905389 11.25 3.0
vertex 7.8349364905389 11.25 0.0
endloop
endfacet
facet normal 0.866025403784438 -0.500000000000001 0.0
outer loop
vertex 7.8349364905389 11.25 3.0
vertex 8.23223304703363 11.7677669529664 0.0
vertex 8.23223304703363 11.7677669529664 3.0
endloop
endfacet
facet normal 0.866025403784438 -0.500000000000001 0.0
outer loop
vertex 7.8349364905389 11.25 0.0
vertex 7.58518543427733 10.6470476127563 3.0
vertex 7.58518543427733 10.6470476127563 0.0
endloop
endfacet
facet normal 0.965925826289068 -0.258819045102522 0.0
outer loop
vertex 7.58518543427733 10.6470476127563 3.0
vertex 7.8349364905389 11.25 0.0
vertex 7.8349364905389 11.25 3.0
endloop
endfacet
facet normal 1.0 -0.0 -0.0
outer loop
vertex 3.0 0.0 3.0
vertex 3.0 17.8349364905389 8.75
vertex 3.0 10.0 20.0
endloop
endfacet
facet normal 1.0 -0.0 -0.0
outer loop
vertex 3.0 17.8349364905389 8.75
vertex 3.0 0.0 3.0
vertex 3.0 18.2322330470336 8.23223304703363
endloop
endfacet
facet normal 1.0 -0.0 -0.0
outer loop
vertex 3.0 18.2322330470336 8.23223304703363
vertex 3.0 0.0 3.0
vertex 3.0 18.75 7.8349364905389
endloop
endfacet
facet normal 1.0 -0.0 -0.0
outer loop
vertex 3.0 18.75 7.8349364905389
vertex 3.0 0.0 3.0
vertex 3.0 19.3529523872437 7.58518543427733
endloop
endfacet
facet normal 1.0 -0.0 -0.0
outer loop
vertex 3.0 19.3529523872437 7.58518543427733
vertex 3.0 0.0 3.0
vertex 3.0 40.0 3.0
endloop
endfacet
facet normal 1.0 -0.0 -0.0
outer loop
vertex 3.0 10.0 20.0
vertex 3.0 17.8349364905389 8.75
vertex 3.0 17.5851854342773 9.3529523872437
endloop
endfacet
facet normal 1.0 -0.0 -0.0
outer loop
vertex 3.0 10.0 20.0
vertex 3.0 17.5851854342773 9.3529523872437
vertex 3.0 17.5 10.0
endloop
endfacet
facet normal 1.0 -0.0 -0.0
outer loop
vertex 3.0 19.3529523872437 7.58518543427733
vertex 3.0 40.0 3.0
vertex 3.0 20.0 7.5
endloop
endfacet
facet normal 1.0 -0.0 -0.0
outer loop
vertex 3.0 20.0 7.5
vertex 3.0 40.0 3.0
vertex 3.0 20.6470476127563 7.58518543427733
endloop
endfacet
facet normal 1.0 -0.0 -0.0
outer loop
vertex 3.0 20.6470476127563 7.58518543427733
vertex 3.0 40.0 3.0
vertex 3.0 21.25 7.8349364905389
endloop
endfacet
facet normal 1.0 -0.0 -0.0
outer loop
vertex 3.0 21.25 7.8349364905389
vertex 3.0 40.0 3.0
vertex 3.0 21.7677669529664 8.23223304703363
endloop
endfacet
facet normal 1.0 -0.0 -0.0
outer loop
vertex 3.0 21.7677669529664 8.23223304703363
vertex 3.0 40.0 3.0
vertex 3.0 22.1650635094611 8.75
endloop
endfacet
facet normal 1.0 -0.0 -0.0
outer loop
vertex 3.0 22.1650635094611 8.75
vertex 3.0 40.0 3.0
vertex 3.0 22.4148145657227 9.3529523872437
endloop
endfacet
facet normal 1.0 -0.0 -0.0
outer loop
vertex 3.0 22.4148145657227 9.3529523872437
vertex 3.0 40.0 3.0
vertex 3.0 22.5 10.0
endloop
endfacet
facet normal 1.0 -0.0 -0.0
outer loop
vertex 3.0 22.5 10.0
vertex 3.0 40.0 3.0
vertex 3.0 30.0 20.0
endloop
endfacet
facet normal 1.0 -0.0 -0.0
outer loop
vertex 3.0 10.0 20.0
vertex 3.0 18.75 12.1650635094611
vertex 3.0 30.0 20.0
endloop
endfacet
facet normal 1.0 -0.0 -0.0
outer loop
vertex 3.0 18.75 12.1650635094611
vertex 3.0 10.0 20.0
vertex 3.0 18.2322330470336 11.7677669529664
endloop
endfacet
facet normal 1.0 -0.0 -0.0
outer loop
vertex 3.0 18.2322330470336 11.7677669529664
vertex 3.0 10.0 20.0
vertex 3.0 17.8349364905389 11.25
endloop
endfacet
facet normal 1.0 -0.0 -0.0
outer loop
vertex 3.0 17.8349364905389 11.25
vertex 3.0 10.0 20.0
vertex 3.0 17.5851854342773 10.6470476127563
endloop
endfacet
facet normal 1.0 -0.0 -0.0
outer loop
vertex 3.0 17.5851854342773 10.6470476127563
vertex 3.0 10.0 20.0
vertex 3.0 17.5 10.0
endloop
endfacet
facet normal 1.0 -0.0 -0.0
outer loop
vertex 3.0 30.0 20.0
vertex 3.0 18.75 12.1650635094611
vertex 3.0 19.3529523872437 12.4148145657227
endloop
endfacet
facet normal 1.0 -0.0 -0.0
outer loop
vertex 3.0 30.0 20.0
vertex 3.0 19.3529523872437 12.4148145657227
vertex 3.0 20.0 12.5
endloop
endfacet
facet normal 1.0 -0.0 -0.0
outer loop
vertex 3.0 30.0 20.0
vertex 3.0 20.0 12.5
vertex 3.0 20.6470476127563 12.4148145657227
endloop
endfacet
facet normal 1.0 -0.0 -0.0
outer loop
vertex 3.0 30.0 20.0
vertex 3.0 20.6470476127563 12.4148145657227
vertex 3.0 21.25 12.1650635094611
endloop
endfacet
facet normal 1.0 -0.0 -0.0
outer loop
vertex 3.0 30.0 20.0
vertex 3.0 21.25 12.1650635094611
vertex 3.0 21.7677669529664 11.7677669529664
endloop
endfacet
facet normal 1.0 -0.0 -0.0
outer loop
vertex 3.0 30.0 20.0
vertex 3.0 21.7677669529664 11.7677669529664
vertex 3.0 22.1650635094611 11.25
endloop
endfacet
facet normal 1.0 -0.0 -0.0
outer loop
vertex 3.0 30.0 20.0
vertex 3.0 22.1650635094611 11.25
vertex 3.0 22.4148145657227 10.6470476127563
endloop
endfacet
facet normal 1.0 -0.0 -0.0
outer loop
vertex 3.0 30.0 20.0
vertex 3.0 22.4148145657227 10.6470476127563
vertex 3.0 22.5 10.0
endloop
endfacet
facet normal 0.0 -1.0 0.0
outer loop
vertex 20.0 0.0 3.0
vertex 0.0 0.0 0.0
vertex 20.0 0.0 0.0
endloop
endfacet
facet normal 0.0 -1.0 0.0
outer loop
vertex 0.0 0.0 0.0
vertex 20.0 0.0 3.0
vertex 0.0 0.0 3.0
endloop
endfacet
facet normal 0.0 -1.0 0.0
outer loop
vertex 0.0 0.0 3.0
vertex 20.0 0.0 3.0
vertex 3.0 0.0 3.0
endloop
endfacet
facet normal -0.0 1.0 -0.0
outer loop
vertex -5.28743715477731e-16 40.0 3.0
vertex 20.0 40.0 0.0
vertex 0.0 40.0 0.0
endloop
endfacet
facet normal -0.0 1.0 -0.0
outer loop
vertex 20.0 40.0 0.0
vertex -5.28743715477731e-16 40.0 3.0
vertex 20.0 40.0 3.0
endloop
endfacet
facet normal -0.0 1.0 -0.0
outer loop
vertex 20.0 40.0 3.0
vertex -5.28743715477731e-16 40.0 3.0
vertex 3.0 40.0 3.0
endloop
endfacet
facet normal -0.0 -0.0 1.0
outer loop
vertex 0.0 10.0 20.0
vertex 3.0 30.0 20.0
vertex -5.28743715477731e-16 30.0 20.0
endloop
endfacet
facet normal -0.0 -0.0 1.0
outer loop
vertex 3.0 30.0 20.0
vertex 0.0 10.0 20.0
vertex 3.0 10.0 20.0
endloop
endfacet
facet normal -1.0 -5.83391440025877e-18 -1.60656461306264e-18
outer loop
vertex 0.0 10.0 20.0
vertex 0.0 17.5851854342773 10.6470476127563
vertex 0.0 17.5 10.0
endloop
endfacet
facet normal -1.0 -5.83391440025877e-18 -1.60656461306264e-18
outer loop
vertex 0.0 17.5851854342773 10.6470476127563
vertex 0.0 10.0 20.0
vertex 0.0 17.8349364905389 11.25
endloop
endfacet
facet normal -1.0 -5.83391440025877e-18 -1.60656461306264e-18
outer loop
vertex 0.0 17.8349364905389 11.25
vertex 0.0 10.0 20.0
vertex 0.0 18.2322330470336 11.7677669529664
endloop
endfacet
facet normal -1.0 -5.83391440025877e-18 -1.60656461306264e-18
outer loop
vertex 0.0 18.2322330470336 11.7677669529664
vertex 0.0 10.0 20.0
vertex 0.0 18.75 12.1650635094611
endloop
endfacet
facet normal -1.0 -5.83391440025877e-18 -1.60656461306264e-18
outer loop
vertex 0.0 18.75 12.1650635094611
vertex 0.0 10.0 20.0
vertex -5.28743715477731e-16 30.0 20.0
endloop
endfacet
facet normal -1.0 -5.83391440025877e-18 -1.60656461306264e-18
outer loop
vertex 0.0 18.75 12.1650635094611
vertex -5.28743715477731e-16 30.0 20.0
vertex 0.0 19.3529523872437 12.4148145657227
endloop
endfacet
facet normal -1.0 -5.83391440025877e-18 -1.60656461306264e-18
outer loop
vertex 0.0 19.3529523872437 12.4148145657227
vertex -5.28743715477731e-16 30.0 20.0
vertex 0.0 20.0 12.5
endloop
endfacet
facet normal -1.0 -5.83391440025877e-18 -1.60656461306264e-18
outer loop
vertex 0.0 20.0 12.5
vertex -5.28743715477731e-16 30.0 20.0
vertex 0.0 20.6470476127563 12.4148145657227
endloop
endfacet
facet normal -1.0 -5.83391440025877e-18 -1.60656461306264e-18
outer loop
vertex 0.0 20.6470476127563 12.4148145657227
vertex -5.28743715477731e-16 30.0 20.0
vertex 0.0 21.25 12.1650635094611
endloop
endfacet
facet normal -1.0 -5.83391440025877e-18 -1.60656461306264e-18
outer loop
vertex 0.0 21.25 12.1650635094611
vertex -5.28743715477731e-16 30.0 20.0
vertex 0.0 21.7677669529664 11.7677669529664
endloop
endfacet
facet normal -1.0 -5.83391440025877e-18 -1.60656461306264e-18
outer loop
vertex 0.0 21.7677669529664 11.7677669529664
vertex -5.28743715477731e-16 30.0 20.0
vertex 0.0 22.1650635094611 11.25
endloop
endfacet
facet normal -1.0 -5.83391440025877e-18 -1.60656461306264e-18
outer loop
vertex 0.0 22.1650635094611 11.25
vertex -5.28743715477731e-16 30.0 20.0
vertex 0.0 22.4148145657227 10.6470476127563
endloop
endfacet
facet normal -1.0 -5.83391440025877e-18 -1.60656461306264e-18
outer loop
vertex 0.0 22.4148145657227 10.6470476127563
vertex -5.28743715477731e-16 30.0 20.0
vertex 0.0 22.5 10.0
endloop
endfacet
facet normal -1.0 -5.83391440025877e-18 -1.60656461306264e-18
outer loop
vertex 0.0 10.0 20.0
vertex 0.0 0.0 0.0
vertex 0.0 0.0 3.0
endloop
endfacet
facet normal -1.0 -5.83391440025877e-18 -1.60656461306264e-18
outer loop
vertex 0.0 0.0 0.0
vertex 0.0 10.0 20.0
vertex 0.0 17.8349364905389 8.75
endloop
endfacet
facet normal -1.0 -5.83391440025877e-18 -1.60656461306264e-18
outer loop
vertex 0.0 0.0 0.0
vertex 0.0 17.8349364905389 8.75
vertex 0.0 18.2322330470336 8.23223304703363
endloop
endfacet
facet normal -1.0 -5.83391440025877e-18 -1.60656461306264e-18
outer loop
vertex 0.0 0.0 0.0
vertex 0.0 18.2322330470336 8.23223304703363
vertex 0.0 18.75 7.8349364905389
endloop
endfacet
facet normal -1.0 -5.83391440025877e-18 -1.60656461306264e-18
outer loop
vertex 0.0 0.0 0.0
vertex 0.0 18.75 7.8349364905389
vertex 0.0 19.3529523872437 7.58518543427733
endloop
endfacet
facet normal -1.0 -5.83391440025877e-18 -1.60656461306264e-18
outer loop
vertex 0.0 0.0 0.0
vertex 0.0 19.3529523872437 7.58518543427733
vertex 0.0 40.0 0.0
endloop
endfacet
facet normal -1.0 -5.83391440025877e-18 -1.60656461306264e-18
outer loop
vertex 0.0 17.8349364905389 8.75
vertex 0.0 10.0 20.0
vertex 0.0 17.5851854342773 9.3529523872437
endloop
endfacet
facet normal -1.0 -5.83391440025877e-18 -1.60656461306264e-18
outer loop
vertex 0.0 17.5851854342773 9.3529523872437
vertex 0.0 10.0 20.0
vertex 0.0 17.5 10.0
endloop
endfacet
facet normal -1.0 -5.83391440025877e-18 -1.60656461306264e-18
outer loop
vertex 0.0 40.0 0.0
vertex 0.0 19.3529523872437 7.58518543427733
vertex 0.0 20.0 7.5
endloop
endfacet
facet normal -1.0 -5.83391440025877e-18 -1.60656461306264e-18
outer loop
vertex 0.0 40.0 0.0
vertex 0.0 20.0 7.5
vertex 0.0 20.6470476127563 7.58518543427733
endloop
endfacet
facet normal -1.0 -5.83391440025877e-18 -1.60656461306264e-18
outer loop
vertex 0.0 40.0 0.0
vertex 0.0 20.6470476127563 7.58518543427733
vertex 0.0 21.25 7.8349364905389
endloop
endfacet
facet normal -1.0 -5.83391440025877e-18 -1.60656461306264e-18
outer loop
vertex 0.0 40.0 0.0
vertex 0.0 21.25 7.8349364905389
vertex 0.0 21.7677669529664 8.23223304703363
endloop
endfacet
facet normal -1.0 -5.83391440025877e-18 -1.60656461306264e-18
outer loop
vertex 0.0 40.0 0.0
vertex 0.0 21.7677669529664 8.23223304703363
vertex 0.0 22.1650635094611 8.75
endloop
endfacet
facet normal -1.0 -5.83391440025877e-18 -1.60656461306264e-18
outer loop
vertex 0.0 40.0 0.0
vertex 0.0 22.1650635094611 8.75
vertex 0.0 22.4148145657227 9.3529523872437
endloop
endfacet
facet normal -1.0 -5.83391440025877e-18 -1.60656461306264e-18
outer loop
vertex 0.0 40.0 0.0
vertex 0.0 22.4148145657227 9.3529523872437
vertex 0.0 22.5 10.0
endloop
endfacet
facet normal -1.0 -5.83391440025877e-18 -1.60656461306264e-18
outer loop
vertex 0.0 40.0 0.0
vertex 0.0 22.5 10.0
vertex -5.28743715477731e-16 30.0 20.0
endloop
endfacet
facet normal -1.0 -5.83391440025877e-18 -1.60656461306264e-18
outer loop
vertex 0.0 40.0 0.0
vertex -5.28743715477731e-16 30.0 20.0
vertex -5.28743715477731e-16 40.0 3.0
endloop
endfacet
facet normal 0.0 0.0 1.0
outer loop
vertex 3.0 20.0 7.5
vertex 0.0 20.6470476127563 7.58518543427733
vertex 0.0 20.0 7.5
endloop
endfacet
facet normal 0.0 -0.25881904510252 0.965925826289068
outer loop
vertex 0.0 20.6470476127563 7.58518543427733
vertex 3.0 20.0 7.5
vertex 3.0 20.6470476127563 7.58518543427733
endloop
endfacet
facet normal 0.0 0.258819045102521 0.965925826289068
outer loop
vertex 3.0 19.3529523872437 7.58518543427733
vertex 0.0 20.0 7.5
vertex 0.0 19.3529523872437 7.58518543427733
endloop
endfacet
facet normal 0.0 0.0 1.0
outer loop
vertex 0.0 20.0 7.5
vertex 3.0 19.3529523872437 7.58518543427733
vertex 3.0 20.0 7.5
endloop
endfacet
facet normal 0.0 0.500000000000001 0.866025403784438
outer loop
vertex 3.0 18.75 7.8349364905389
vertex 0.0 19.3529523872437 7.58518543427733
vertex 0.0 18.75 7.8349364905389
endloop
endfacet
facet normal 0.0 0.258819045102521 0.965925826289068
outer loop
vertex 0.0 19.3529523872437 7.58518543427733
vertex 3.0 18.75 7.8349364905389
vertex 3.0 19.3529523872437 7.58518543427733
endloop
endfacet
facet normal 0.0 0.965925826289069 0.258819045102519
outer loop
vertex 0.0 17.5851854342773 9.3529523872437
vertex 3.0 17.8349364905389 8.75
vertex 0.0 17.8349364905389 8.75
endloop
endfacet
facet normal 0.0 0.866025403784438 0.500000000000001
outer loop
vertex 3.0 17.8349364905389 8.75
vertex 0.0 17.5851854342773 9.3529523872437
vertex 3.0 17.5851854342773 9.3529523872437
endloop
endfacet
facet normal 0.0 1.0 1.60399978121644e-16
outer loop
vertex 0.0 17.5 10.0
vertex 3.0 17.5851854342773 9.3529523872437
vertex 0.0 17.5851854342773 9.3529523872437
endloop
endfacet
facet normal 0.0 0.965925826289069 0.258819045102519
outer loop
vertex 3.0 17.5851854342773 9.3529523872437
vertex 0.0 17.5 10.0
vertex 3.0 17.5 10.0
endloop
endfacet
facet normal 0.0 0.965925826289068 -0.25881904510252
outer loop
vertex 0.0 17.5851854342773 10.6470476127563
vertex 3.0 17.5 10.0
vertex 0.0 17.5 10.0
endloop
endfacet
facet normal 0.0 1.0 1.60399978121644e-16
outer loop
vertex 3.0 17.5 10.0
vertex 0.0 17.5851854342773 10.6470476127563
vertex 3.0 17.5851854342773 10.6470476127563
endloop
endfacet
facet normal 0.0 0.707106781186548 -0.707106781186547
outer loop
vertex 0.0 18.2322330470336 11.7677669529664
vertex 3.0 17.8349364905389 11.25
vertex 0.0 17.8349364905389 11.25
endloop
endfacet
facet normal 0.0 0.866025403784438 -0.500000000000002
outer loop
vertex 3.0 17.8349364905389 11.25
vertex 0.0 18.2322330470336 11.7677669529664
vertex 3.0 18.2322330470336 11.7677669529664
endloop
endfacet
facet normal 0.0 0.5 -0.866025403784439
outer loop
vertex 3.0 18.75 12.1650635094611
vertex 0.0 18.2322330470336 11.7677669529664
vertex 0.0 18.75 12.1650635094611
endloop
endfacet
facet normal 0.0 0.707106781186548 -0.707106781186547
outer loop
vertex 0.0 18.2322330470336 11.7677669529664
vertex 3.0 18.75 12.1650635094611
vertex 3.0 18.2322330470336 11.7677669529664
endloop
endfacet
facet normal 0.0 0.25881904510252 -0.965925826289068
outer loop
vertex 3.0 19.3529523872437 12.4148145657227
vertex 0.0 18.75 12.1650635094611
vertex 0.0 19.3529523872437 12.4148145657227
endloop
endfacet
facet normal 0.0 0.5 -0.866025403784439
outer loop
vertex 0.0 18.75 12.1650635094611
vertex 3.0 19.3529523872437 12.4148145657227
vertex 3.0 18.75 12.1650635094611
endloop
endfacet
facet normal 0.0 -0.258819045102522 -0.965925826289068
outer loop
vertex 3.0 20.6470476127563 12.4148145657227
vertex 0.0 20.0 12.5
vertex 0.0 20.6470476127563 12.4148145657227
endloop
endfacet
facet normal 0.0 2.94066626556348e-16 -1.0
outer loop
vertex 0.0 20.0 12.5
vertex 3.0 20.6470476127563 12.4148145657227
vertex 3.0 20.0 12.5
endloop
endfacet
facet normal 0.0 -0.5 -0.866025403784438
outer loop
vertex 3.0 21.25 12.1650635094611
vertex 0.0 20.6470476127563 12.4148145657227
vertex 0.0 21.25 12.1650635094611
endloop
endfacet
facet normal 0.0 -0.258819045102522 -0.965925826289068
outer loop
vertex 0.0 20.6470476127563 12.4148145657227
vertex 3.0 21.25 12.1650635094611
vertex 3.0 20.6470476127563 12.4148145657227
endloop
endfacet
facet normal 0.0 -0.707106781186547 -0.707106781186547
outer loop
vertex 3.0 21.7677669529664 11.7677669529664
vertex 0.0 21.25 12.1650635094611
vertex 0.0 21.7677669529664 11.7677669529664
endloop
endfacet
facet normal 0.0 -0.5 -0.866025403784438
outer loop
vertex 0.0 21.25 12.1650635094611
vertex 3.0 21.7677669529664 11.7677669529664
vertex 3.0 21.25 12.1650635094611
endloop
endfacet
facet normal 0.0 -0.707106781186547 -0.707106781186547
outer loop
vertex 3.0 21.7677669529664 11.7677669529664
vertex 0.0 22.1650635094611 11.25
vertex 3.0 22.1650635094611 11.25
endloop
endfacet
facet normal 0.0 -0.866025403784439 -0.499999999999999
outer loop
vertex 0.0 22.1650635094611 11.25
vertex 3.0 21.7677669529664 11.7677669529664
vertex 0.0 21.7677669529664 11.7677669529664
endloop
endfacet
facet normal 0.0 -0.866025403784439 -0.499999999999999
outer loop
vertex 3.0 22.1650635094611 11.25
vertex 0.0 22.4148145657227 10.6470476127563
vertex 3.0 22.4148145657227 10.6470476127563
endloop
endfacet
facet normal 0.0 -0.965925826289069 -0.258819045102519
outer loop
vertex 0.0 22.4148145657227 10.6470476127563
vertex 3.0 22.1650635094611 11.25
vertex 0.0 22.1650635094611 11.25
endloop
endfacet
facet normal 0.0 -0.25881904510252 0.965925826289068
outer loop
vertex 3.0 20.6470476127563 7.58518543427733
vertex 0.0 21.25 7.8349364905389
vertex 0.0 20.6470476127563 7.58518543427733
endloop
endfacet
facet normal 0.0 -0.5 0.866025403784439
outer loop
vertex 0.0 21.25 7.8349364905389
vertex 3.0 20.6470476127563 7.58518543427733
vertex 3.0 21.25 7.8349364905389
endloop
endfacet
facet normal 0.0 -0.86193421515777 0.507020126563394
outer loop
vertex 3.0 10.0 20.0
vertex 0.0 0.0 3.0
vertex 3.0 0.0 3.0
endloop
endfacet
facet normal 0.0 -0.86193421515777 0.507020126563394
outer loop
vertex 0.0 0.0 3.0
vertex 3.0 10.0 20.0
vertex 0.0 10.0 20.0
endloop
endfacet
facet normal -6.71988501460616e-32 0.86193421515777 0.507020126563394
outer loop
vertex -5.28743715477731e-16 30.0 20.0
vertex 3.0 40.0 3.0
vertex -5.28743715477731e-16 40.0 3.0
endloop
endfacet
facet normal -6.71988501460616e-32 0.86193421515777 0.507020126563394
outer loop
vertex 3.0 40.0 3.0
vertex -5.28743715477731e-16 30.0 20.0
vertex 3.0 30.0 20.0
endloop
endfacet
facet normal 0.0 0.866025403784438 -0.500000000000002
outer loop
vertex 0.0 17.8349364905389 11.25
vertex 3.0 17.5851854342773 10.6470476127563
vertex 0.0 17.5851854342773 10.6470476127563
endloop
endfacet
facet normal 0.0 0.965925826289068 -0.25881904510252
outer loop
vertex 3.0 17.5851854342773 10.6470476127563
vertex 0.0 17.8349364905389 11.25
vertex 3.0 17.8349364905389 11.25
endloop
endfacet
facet normal 0.0 -0.965925826289069 -0.258819045102519
outer loop
vertex 3.0 22.4148145657227 10.6470476127563
vertex 0.0 22.5 10.0
vertex 3.0 22.5 10.0
endloop
endfacet
facet normal 0.0 -1.0 1.71093309996421e-15
outer loop
vertex 0.0 22.5 10.0
vertex 3.0 22.4148145657227 10.6470476127563
vertex 0.0 22.4148145657227 10.6470476127563
endloop
endfacet
facet normal 0.0 -1.0 1.71093309996421e-15
outer loop
vertex 3.0 22.5 10.0
vertex 0.0 22.4148145657227 9.3529523872437
vertex 3.0 22.4148145657227 9.3529523872437
endloop
endfacet
facet normal 0.0 -0.965925826289068 0.258819045102521
outer loop
vertex 0.0 22.4148145657227 9.3529523872437
vertex 3.0 22.5 10.0
vertex 0.0 22.5 10.0
endloop
endfacet
facet normal 0.0 0.707106781186547 0.707106781186548
outer loop
vertex 3.0 18.2322330470336 8.23223304703363
vertex 0.0 18.75 7.8349364905389
vertex 0.0 18.2322330470336 8.23223304703363
endloop
endfacet
facet normal 0.0 0.500000000000001 0.866025403784438
outer loop
vertex 0.0 18.75 7.8349364905389
vertex 3.0 18.2322330470336 8.23223304703363
vertex 3.0 18.75 7.8349364905389
endloop
endfacet
facet normal 0.0 0.866025403784438 0.500000000000001
outer loop
vertex 0.0 17.8349364905389 8.75
vertex 3.0 18.2322330470336 8.23223304703363
vertex 0.0 18.2322330470336 8.23223304703363
endloop
endfacet
facet normal 0.0 0.707106781186547 0.707106781186548
outer loop
vertex 3.0 18.2322330470336 8.23223304703363
vertex 0.0 17.8349364905389 8.75
vertex 3.0 17.8349364905389 8.75
endloop
endfacet
facet normal 0.0 -0.965925826289068 0.258819045102521
outer loop
vertex 3.0 22.4148145657227 9.3529523872437
vertex 0.0 22.1650635094611 8.75
vertex 3.0 22.1650635094611 8.75
endloop
endfacet
facet normal 0.0 -0.866025403784439 0.5
outer loop
vertex 0.0 22.1650635094611 8.75
vertex 3.0 22.4148145657227 9.3529523872437
vertex 0.0 22.4148145657227 9.3529523872437
endloop
endfacet
facet normal 0.0 -0.866025403784439 0.5
outer loop
vertex 3.0 22.1650635094611 8.75
vertex 0.0 21.7677669529664 8.23223304703363
vertex 3.0 21.7677669529664 8.23223304703363
endloop
endfacet
facet normal 0.0 -0.707106781186548 0.707106781186547
outer loop
vertex 0.0 21.7677669529664 8.23223304703363
vertex 3.0 22.1650635094611 8.75
vertex 0.0 22.1650635094611 8.75
endloop
endfacet
facet normal 0.0 -0.5 0.866025403784439
outer loop
vertex 3.0 21.25 7.8349364905389
vertex 0.0 21.7677669529664 8.23223304703363
vertex 0.0 21.25 7.8349364905389
endloop
endfacet
facet normal 0.0 -0.707106781186548 0.707106781186547
outer loop
vertex 0.0 21.7677669529664 8.23223304703363
vertex 3.0 21.25 7.8349364905389
vertex 3.0 21.7677669529664 8.23223304703363
endloop
endfacet
facet normal 0.0 2.94066626556348e-16 -1.0
outer loop
vertex 3.0 20.0 12.5
vertex 0.0 19.3529523872437 12.4148145657227
vertex 0.0 20.0 12.5
endloop
endfacet
facet normal 0.0 0.25881904510252 -0.965925826289068
outer loop
vertex 0.0 19.3529523872437 12.4148145657227
vertex 3.0 20.0 12.5
vertex 3.0 19.3529523872437 12.4148145657227
endloop
endfacet
endsolid 1X2AB
